<svg width="15" height="18" viewBox="0 0 15 18" fill="none" xmlns="http://www.w3.org/2000/svg">
<g opacity="0.8">
<path d="M2.25 1C1.00781 1 0 1.95182 0 3.125V15.875C0 17.0482 1.00781 18 2.25 18H3.75C4.99219 18 6 17.0482 6 15.875V3.125C6 1.95182 4.99219 1 3.75 1H2.25ZM11.25 1C10.0078 1 9 1.95182 9 3.125V15.875C9 17.0482 10.0078 18 11.25 18H12.75C13.9922 18 15 17.0482 15 15.875V3.125C15 1.95182 13.9922 1 12.75 1H11.25Z" fill="white"/>
<path d="M2.25 0C1.00781 0 0 0.951823 0 2.125V14.875C0 16.0482 1.00781 17 2.25 17H3.75C4.99219 17 6 16.0482 6 14.875V2.125C6 0.951823 4.99219 0 3.75 0H2.25ZM11.25 0C10.0078 0 9 0.951823 9 2.125V14.875C9 16.0482 10.0078 17 11.25 17H12.75C13.9922 17 15 16.0482 15 14.875V2.125C15 0.951823 13.9922 0 12.75 0H11.25Z" fill="white"/>
</g>
</svg>
