<svg width="22" height="17" viewBox="0 0 22 17" fill="none" xmlns="http://www.w3.org/2000/svg">
<path d="M19.1327 2.80569C20.8798 4.12283 22 6.13222 22 8.38108C22 10.6299 20.8798 12.6393 19.1327 13.9565C18.7162 14.2708 18.1055 14.2109 17.7658 13.8255C17.4261 13.4401 17.4908 12.8751 17.9074 12.5608C19.2217 11.5729 20.0588 10.0687 20.0588 8.38108C20.0588 6.6935 19.2217 5.18926 17.9074 4.19767C17.4908 3.88335 17.4301 3.31833 17.7658 2.93291C18.1015 2.5475 18.7162 2.49137 19.1327 2.80195V2.80569ZM16.686 5.59339C17.5555 6.25196 18.1176 7.25478 18.1176 8.38108C18.1176 9.50739 17.5555 10.5102 16.686 11.1688C16.2695 11.4831 15.6588 11.4232 15.3191 11.0378C14.9794 10.6524 15.0441 10.0874 15.4607 9.77306C15.8974 9.44378 16.1765 8.94236 16.1765 8.38108C16.1765 7.8198 15.8974 7.31839 15.4607 6.98536C15.0441 6.67105 14.9835 6.10602 15.3191 5.72061C15.6548 5.3352 16.2695 5.27907 16.686 5.58964V5.59339ZM12.1768 0.104056C12.6419 0.298634 12.9412 0.725208 12.9412 1.19668V15.5655C12.9412 16.037 12.6419 16.4635 12.1768 16.6581C11.7118 16.8527 11.1658 16.7741 10.7857 16.4598L5.33015 11.9733H2.58824C1.16066 11.9733 0 10.8994 0 9.57848V7.18368C0 5.8628 1.16066 4.78888 2.58824 4.78888H5.33015L10.7857 0.302376C11.1658 -0.0119419 11.7118 -0.0867794 12.1768 0.104056Z" fill="white" fill-opacity="0.8"/>
</svg>
